<svg width="140" height="34" viewBox="0 0 140 34" fill="none" xmlns="http://www.w3.org/2000/svg">
<path d="M31.8 20.4744L20.9346 4.13037H24.4396L32.9841 17.2945L41.4369 4.13037H44.8502L34.0515 20.4744H31.8Z" fill="#004DFF"/>
<path d="M46.4844 20.4744V4.13037H49.5725V20.4744H46.4844Z" fill="#004DFF"/>
<path d="M57.7444 20.4747C56.816 20.4747 56.0266 20.3774 55.3762 20.1856C54.7258 19.991 54.1949 19.7214 53.7863 19.374C53.3749 19.0265 53.0775 18.6124 52.8912 18.1315C52.705 17.6506 52.6133 17.1169 52.6133 16.5304V8.08048C52.6133 7.4912 52.705 6.95752 52.8912 6.47943C53.0775 5.99856 53.3749 5.5844 53.7863 5.23695C54.1977 4.8895 54.7258 4.61709 55.3762 4.4253C56.0266 4.23073 56.816 4.13623 57.7444 4.13623H70.9086V6.5517H57.7444C56.3824 6.5517 55.7014 7.0548 55.7014 8.06102V16.5582C55.7014 17.5645 56.3824 18.0676 57.7444 18.0676H70.9086V20.483H57.7444V20.4747Z" fill="#004DFF"/>
<path fill-rule="evenodd" clip-rule="evenodd" d="M73.499 6.54584V4.13037H90.3072V6.54584H76.5844H73.499ZM73.499 20.4744V10.6291H76.5871H89.6123V13.0445H76.5871V18.0589H90.31V20.4744H73.499Z" fill="#004DFF"/>
<path fill-rule="evenodd" clip-rule="evenodd" d="M92.9121 20.4744V4.13037H107.889C109.05 4.13037 110.018 4.23044 110.79 4.43335C111.566 4.63348 112.183 4.93646 112.647 5.3395C113.111 5.74254 113.439 6.24564 113.634 6.84881C113.829 7.45199 113.923 8.158 113.923 8.96131V15.8102C113.923 16.583 113.826 17.2612 113.634 17.8421C113.439 18.423 113.111 18.9067 112.647 19.2931C112.183 19.6794 111.563 19.9741 110.79 20.1742C110.018 20.3743 109.05 20.4772 107.889 20.4772H92.9121V20.4744ZM110.835 8.95853C110.835 8.49433 110.788 8.10797 110.696 7.79666C110.604 7.48812 110.446 7.24074 110.221 7.05451C109.995 6.86828 109.695 6.73763 109.314 6.6598C108.936 6.58197 108.458 6.54307 107.886 6.54307H95.9975V18.0589H107.886C108.458 18.0589 108.934 18.02 109.314 17.9422C109.693 17.8643 109.995 17.742 110.221 17.5697C110.446 17.4002 110.604 17.1667 110.696 16.872C110.788 16.5774 110.835 16.2133 110.835 15.7797V8.95853Z" fill="#004DFF"/>
<path d="M135.759 20.4744L127.328 7.31023L118.762 20.4744H115.326L126.192 4.13037H128.443L139.242 20.4744H135.759Z" fill="#004DFF"/>
<path d="M17.6795 33.9969V27.7289H13.8242V26.6421H22.819V27.7289H19.0693V33.9969H17.6795Z" fill="#95FF00"/>
<path d="M17.0983 11.5075L14.4104 7.31033L12.9623 9.53401C14.2381 9.83976 15.5111 10.3373 16.7286 11.2268C16.8565 11.3213 16.9788 11.4158 17.0983 11.5075ZM22.8382 20.4745L21.8292 18.8985L21.1204 17.7894C20.2226 16.5469 18.4408 14.5428 15.5584 13.1892C11.1166 11.1017 4.4706 12.5527 1.52701 8.68901C-1.41658 4.82816 0.801532 0 0.801532 0C0.801532 0 0.429067 3.91367 3.63672 7.0018C5.31281 8.61674 7.56984 8.78908 9.99365 9.0587L13.2736 4.1277H15.525L26.321 20.4717H22.8382V20.4745Z" fill="#004DFF"/>
<path d="M17.043 16.1522C16.6622 15.9743 16.248 15.8131 15.8005 15.6769C15.8672 15.7908 15.9117 15.9215 15.9284 16.0632C15.984 16.5858 15.6032 17.0556 15.0806 17.1111C14.558 17.1667 14.0883 16.7859 14.0327 16.2634C14.0271 16.2133 14.0271 16.1661 14.0271 16.1188C14.2189 16.1077 14.4941 16.0938 14.7026 16.0938C15.0611 16.0938 15.1584 16.0354 14.9444 15.8714C14.7804 15.7436 14.394 15.6352 14.2189 15.5907C14.2801 15.5101 14.3551 15.4378 14.4385 15.3795C14.0466 15.3211 13.6269 15.2766 13.1877 15.2405C12.3788 16.4969 13.4656 18.2536 15.0917 18.0868C16.1813 17.9728 17.0263 17.2362 17.043 16.1522ZM9.40466 15.007L5.84678 20.4772H2.40842L6.32487 14.5845C5.34089 14.3482 4.48756 13.9952 3.87605 13.4504C1.49671 11.3324 1.67183 9.93701 1.67183 9.93701C1.67183 9.93701 2.49737 11.2434 5.29364 12.094C7.75358 12.8417 12.5373 12.5804 15.8811 14.1537C19.225 15.7269 20.1283 18.462 20.1283 18.462C20.1283 18.462 19.3528 17.4586 17.8463 16.5775C17.2181 20.0047 12.251 19.4293 12.0564 16.4246C12.0314 16.0354 12.1036 15.5851 12.2704 15.1765C11.3448 15.1182 10.3664 15.0765 9.40466 15.007Z" fill="#FF7300"/>
<path d="M31.6859 33.9969V30.653H25.6681V33.9969H24.2783V26.6421H25.6681V29.5662H31.6859V26.6421H33.0757V33.9969H31.6859Z" fill="#95FF00"/>
<path fill-rule="evenodd" clip-rule="evenodd" d="M51.2008 33.9969L49.4774 30.717H45.6027V33.9969H44.2129V26.6421H50.4614C50.8784 26.6421 51.2341 26.6866 51.526 26.7727C51.8179 26.8589 52.0569 26.9812 52.2404 27.1396C52.4238 27.2953 52.56 27.4815 52.6434 27.6983C52.7268 27.9151 52.7685 28.1542 52.7685 28.4182V28.9408C52.7685 29.4161 52.6295 29.8108 52.3515 30.1277C52.0736 30.4446 51.6066 30.6336 50.9506 30.6975L52.6851 33.9997H51.2008V33.9969ZM51.3787 28.4071C51.3787 27.9541 51.0729 27.7289 50.4586 27.7289H45.5999V29.6302H50.4586C51.0729 29.6302 51.3787 29.405 51.3787 28.9519V28.4071Z" fill="#95FF00"/>
<path d="M62.9146 33.9969L59.1205 28.0736L55.2652 33.9969H53.7197L58.609 26.6421H59.6236L64.4823 33.9969H62.9146Z" fill="#95FF00"/>
<path fill-rule="evenodd" clip-rule="evenodd" d="M67.0753 31.2812V33.9969H65.6855V26.6421H71.7145C72.1314 26.6421 72.4872 26.6866 72.7791 26.7727C73.0709 26.8589 73.31 26.9812 73.4962 27.1396C73.6797 27.2953 73.8159 27.4815 73.8992 27.6983C73.9826 27.9151 74.0243 28.1542 74.0243 28.4182V29.5051C74.0243 29.7691 73.9826 30.011 73.8992 30.225C73.8159 30.4418 73.6824 30.628 73.4962 30.7837C73.3128 30.9393 73.0737 31.0616 72.7791 31.1506C72.4872 31.2368 72.1314 31.2812 71.7145 31.2812H67.0753ZM72.6345 28.4071C72.6345 27.9541 72.3288 27.7289 71.7145 27.7289H67.0753V30.1944H71.7145C72.326 30.1944 72.6345 29.9693 72.6345 29.5162V28.4071Z" fill="#95FF00"/>
<path d="M87.0413 33.9975C86.6244 33.9975 86.2686 33.9531 85.9767 33.8669C85.6848 33.7807 85.4458 33.6584 85.2596 33.5028C85.0761 33.3471 84.9399 33.1609 84.8565 32.9441C84.7731 32.7273 84.7314 32.4882 84.7314 32.2242V26.6455H86.1212V32.2353C86.1212 32.6884 86.427 32.9135 87.0413 32.9135H91.6082C92.2225 32.9135 92.5282 32.6884 92.5282 32.2353V26.6455H93.918V32.2242C93.918 32.4882 93.893 32.73 93.8402 32.9441C93.7874 33.1609 93.6873 33.3471 93.5372 33.5028C93.3871 33.6584 93.1814 33.7807 92.9201 33.8669C92.6589 33.9531 92.3197 33.9975 91.9028 33.9975H87.0413Z" fill="#95FF00"/>
<path d="M99.1746 33.9969V27.7289H95.3193V26.6421H104.317V27.7289H100.564V33.9969H99.1746Z" fill="#95FF00"/>
<path d="M105.826 33.9969V26.6421H107.216V33.9969H105.826Z" fill="#95FF00"/>
<path d="M111.415 33.9975C110.998 33.9975 110.643 33.9531 110.351 33.8669C110.059 33.7807 109.82 33.6584 109.634 33.5028C109.45 33.3471 109.314 33.1609 109.231 32.9441C109.147 32.7273 109.105 32.4882 109.105 32.2242V28.4217C109.105 28.1576 109.147 27.9158 109.231 27.7018C109.314 27.485 109.447 27.2987 109.634 27.1431C109.82 26.9874 110.056 26.8651 110.351 26.7761C110.643 26.69 110.998 26.6455 111.415 26.6455H117.339V27.7323H111.415C110.804 27.7323 110.495 27.9575 110.495 28.4106V32.2353C110.495 32.6884 110.801 32.9135 111.415 32.9135H117.339V34.0003H111.415V33.9975Z" fill="#95FF00"/>
<path d="M119.124 33.9975V32.9107H125.517C126.128 32.9107 126.437 32.6856 126.437 32.2325V31.3013C126.437 30.8483 126.131 30.6231 125.517 30.6231H121.192C120.775 30.6231 120.419 30.5786 120.127 30.4925C119.835 30.4063 119.596 30.284 119.41 30.1283C119.227 29.9727 119.09 29.7865 119.007 29.5696C118.924 29.3528 118.882 29.1138 118.882 28.8497V28.4217C118.882 28.1576 118.924 27.9158 119.007 27.7018C119.09 27.485 119.224 27.2987 119.41 27.1431C119.593 26.9874 119.832 26.8651 120.127 26.7761C120.419 26.69 120.775 26.6455 121.192 26.6455H127.418V27.7323H121.192C120.577 27.7323 120.272 27.9575 120.272 28.4106V28.8608C120.272 29.3139 120.577 29.5391 121.192 29.5391H125.517C125.934 29.5391 126.289 29.5835 126.581 29.6697C126.873 29.7559 127.112 29.8782 127.298 30.0338C127.482 30.1895 127.618 30.3757 127.701 30.5925C127.785 30.8093 127.827 31.0484 127.827 31.3124V32.2214C127.827 32.4854 127.785 32.7273 127.701 32.9413C127.618 33.1581 127.485 33.3443 127.298 33.5C127.115 33.6556 126.876 33.7779 126.581 33.8641C126.289 33.9503 125.934 33.9948 125.517 33.9948H119.124V33.9975Z" fill="#95FF00"/>
<path fill-rule="evenodd" clip-rule="evenodd" d="M34.9541 27.7289V26.6421H42.5174V27.7289H36.3439H34.9541ZM34.9541 33.9969V29.569H36.3439H42.2033V30.6558H36.3439V32.9129H42.5174V33.9997H34.9541V33.9969Z" fill="#95FF00"/>
<path fill-rule="evenodd" clip-rule="evenodd" d="M75.5059 27.7289V26.6421H83.0691V27.7289H76.8957H75.5059ZM75.5059 33.9969V29.569H76.8957H82.755V30.6558H76.8957V32.9129H83.0691V33.9997H75.5059V33.9969Z" fill="#95FF00"/>
<path d="M135.884 4.27783V4.61139H134.944V7.07133H134.564V4.61139H133.624V4.27783H135.884Z" fill="#004DFF"/>
<path d="M136.224 4.27832H136.766L137.569 6.6382L138.367 4.27832H138.906V7.06904H138.545V5.42074C138.545 5.36237 138.545 5.27063 138.547 5.13721C138.55 5.00657 138.55 4.86482 138.55 4.71472L137.752 7.06904H137.377L136.574 4.71472V4.80089C136.574 4.87038 136.577 4.97322 136.579 5.1122C136.582 5.25118 136.585 5.35403 136.585 5.42074V7.06904H136.224V4.27832Z" fill="#004DFF"/>
</svg>
